<svg id="Capa_1" data-name="Capa 1" xmlns="http://www.w3.org/2000/svg" viewBox="0 0 38.06 38.06"><defs><style>.cls-1{fill:#2bb673;}.cls-2{fill:#fff;}</style></defs><path class="cls-1" d="M19.72,1.23h0a19,19,0,0,1,19,19h0a19,19,0,0,1-19,19h0a19,19,0,0,1-19-19h0A19,19,0,0,1,19.72,1.23Z" transform="translate(-0.69 -1.23)"/><path class="cls-2" d="M27.36,10.92q-4.47-.15-6.08,5.07a3.88,3.88,0,0,1,1.6-.35c1.1,0,1.58.61,1.45,1.85a8.34,8.34,0,0,1-1.45,3.26c-.91,1.42-1.58,2.14-2,2.14s-1.11-1.1-1.6-3.3q-.24-1-.87-4.95-.59-3.69-3.1-3.45a7.16,7.16,0,0,0-3.2,1.94C11.11,14.07,10,15,9,15.94l1,1.31a6.28,6.28,0,0,1,1.69-1c.74,0,1.43,1.17,2.08,3.49l1.74,6.39c.87,2.32,1.94,3.49,3.2,3.49q3,0,7.44-5.73,4.26-5.49,4.41-8.63C30.62,12.43,29.58,11,27.36,10.92Z" transform="translate(-0.69 -1.23)"/></svg>