<svg id="Capa_1" data-name="Capa 1" xmlns="http://www.w3.org/2000/svg" viewBox="0 0 38 38"><defs><style>.cls-1{fill:#2bb673;}.cls-2{fill:#fff;}</style></defs><path class="cls-1" d="M19.87,38.88h0a19,19,0,0,1-19-19h0a19,19,0,0,1,19-19h0a19,19,0,0,1,19,19h0a19,19,0,0,1-19,19Z" transform="translate(-0.87 -0.88)"/><path class="cls-2" d="M9.75,26.22A11.84,11.84,0,0,0,27.93,15.68,8.67,8.67,0,0,0,30,13.53a8.65,8.65,0,0,1-2.39.65,4.18,4.18,0,0,0,1.83-2.3,8.43,8.43,0,0,1-2.65,1,4.17,4.17,0,0,0-7,3.8,11.8,11.8,0,0,1-8.57-4.35,4.14,4.14,0,0,0,1.29,5.55,4.15,4.15,0,0,1-1.89-.52,4.17,4.17,0,0,0,3.34,4.13,4.27,4.27,0,0,1-1.88.08,4.19,4.19,0,0,0,3.89,2.89A8.4,8.4,0,0,1,9.75,26.22Z" transform="translate(-0.87 -0.88)"/></svg>