<svg id="Capa_1" data-name="Capa 1" xmlns="http://www.w3.org/2000/svg" viewBox="0 0 38 38"><defs><style>.cls-1{fill:yellowgreen;}.cls-2{fill:#fff;}</style></defs><path class="cls-1" d="M19.85,38.62h0a19,19,0,0,1-19-19h0a19,19,0,0,1,19-19h0a19,19,0,0,1,19,19h0A19,19,0,0,1,19.85,38.62Z" transform="translate(-0.85 -0.62)"/><path class="cls-2" d="M19.85,11c2.79,0,3.12,0,4.22.06a5.79,5.79,0,0,1,1.93.36,3.28,3.28,0,0,1,1.2.78,3.24,3.24,0,0,1,.78,1.2,5.56,5.56,0,0,1,.36,1.94c0,1.1.07,1.43.07,4.22s0,3.11-.07,4.21A5.6,5.6,0,0,1,28,25.74a3,3,0,0,1-.78,1.2,3.28,3.28,0,0,1-1.2.78,5.79,5.79,0,0,1-1.93.36c-1.1.05-1.43.06-4.22.06s-3.12,0-4.22-.06a6,6,0,0,1-1.93-.4,3.43,3.43,0,0,1-2-2,5.38,5.38,0,0,1-.36-1.94c0-1.1-.06-1.43-.06-4.21s0-3.12.06-4.22a5.34,5.34,0,0,1,.36-1.94,3.16,3.16,0,0,1,.78-1.2,3.12,3.12,0,0,1,1.2-.78A5.79,5.79,0,0,1,15.61,11C16.71,11,17,11,19.83,11m0-1.88c-2.83,0-3.19,0-4.3.07A7.28,7.28,0,0,0,13,9.64a5.34,5.34,0,0,0-3.06,3,7.83,7.83,0,0,0-.48,2.54c0,1.11-.06,1.46-.06,4.3s0,3.19.06,4.3a7.83,7.83,0,0,0,.48,2.53,5,5,0,0,0,1.21,1.85A5.06,5.06,0,0,0,13,29.41a7.53,7.53,0,0,0,2.53.49c1.11,0,1.47.06,4.3.06s3.19,0,4.3-.06a8,8,0,0,0,2.54-.49,5.1,5.1,0,0,0,1.84-1.2,5.21,5.21,0,0,0,1.21-1.85,7.83,7.83,0,0,0,.48-2.53c0-1.11.07-1.47.07-4.3s0-3.19-.07-4.3a7.83,7.83,0,0,0-.48-2.54,5.21,5.21,0,0,0-1.21-1.85,5.1,5.1,0,0,0-1.84-1.2,7.67,7.67,0,0,0-2.54-.48c-1.11-.06-1.47-.07-4.3-.07" transform="translate(-0.85 -0.62)"/><path class="cls-2" d="M19.85,14.23a5.36,5.36,0,1,0,5.36,5.36,5.36,5.36,0,0,0-5.36-5.36h0m0,8.84a3.48,3.48,0,1,1,3.48-3.48h0a3.48,3.48,0,0,1-3.48,3.48" transform="translate(-0.85 -0.62)"/><path class="cls-2" d="M26.67,14a1.25,1.25,0,1,1-1.25-1.25A1.25,1.25,0,0,1,26.67,14" transform="translate(-0.85 -0.62)"/></svg>