<svg id="Capa_1" data-name="Capa 1" xmlns="http://www.w3.org/2000/svg" viewBox="0 0 38.06 38.06"><defs><style>.cls-1{fill:#2bb673;}.cls-2{fill:#fff;}</style></defs><path class="cls-1" d="M20.18,1.23h0a19,19,0,0,1,19,19h0a19,19,0,0,1-19,19h0a19,19,0,0,1-19-19h0A19,19,0,0,1,20.18,1.23Z" transform="translate(-1.15 -1.23)"/><path class="cls-2" d="M30.43,15.07a2.67,2.67,0,0,0-1.89-1.91c-1.67-.45-8.37-.45-8.37-.45s-6.69,0-8.36.45a2.67,2.67,0,0,0-1.89,1.91,28.21,28.21,0,0,0-.45,5.19,28.1,28.1,0,0,0,.45,5.18,2.67,2.67,0,0,0,1.89,1.91c1.67.45,8.36.45,8.36.45s6.7,0,8.37-.45a2.67,2.67,0,0,0,1.89-1.91,28.1,28.1,0,0,0,.45-5.18A28.21,28.21,0,0,0,30.43,15.07Z" transform="translate(-1.15 -1.23)"/><polygon class="cls-1" points="16.67 22.21 16.67 15.84 22.27 19.03 16.67 22.21"/></svg>